<?xml version="1.0" encoding="utf-8"?>
<!-- Generator: Adobe Illustrator 26.5.0, SVG Export Plug-In . SVG Version: 6.00 Build 0)  -->
<svg version="1.1" id="Layer_3" xmlns="http://www.w3.org/2000/svg" xmlns:xlink="http://www.w3.org/1999/xlink" x="0px" y="0px"
	 viewBox="0 0 512 512" style="enable-background:new 0 0 512 512;" xml:space="preserve">
<style type="text/css">
	.st0{fill:#241E1E;}
    @media ( prefers-color-scheme: dark) {
			.st0{fill: #F2EBEB;}
		}
</style>
<g>
	<path class="st0" d="M437.4,80.2v28.1c0,6.4-5.2,11.7-11.7,11.7H110.1c-3.3,0-6.4,1.4-8.6,3.8l-85.6,92.9
		c-6.9,7.5-1.6,19.6,8.6,19.6h0c6.4,0,11.7,5.2,11.7,11.7v183.9c0,6.4,5.2,11.7,11.7,11.7h432.6c6.4,0,11.7-5.2,11.7-11.7V80.2
		c0-6.4-5.2-11.7-11.7-11.7h-31.4C442.6,68.5,437.4,73.8,437.4,80.2z M461.9,345.5H66.5c-6.4,0-11.7-5.2-11.7-11.7v-86
		c0-6.4,5.2-11.7,11.7-11.7h10.9c6.4,0,11.7,5.2,11.7,11.7v14.8c0,6.4,5.2,11.7,11.7,11.7h45.2c6.4,0,11.7-5.2,11.7-11.7v-35
		c0-6.4,5.2-11.7,11.7-11.7h239.1c6.4,0,11.7,5.2,11.7,11.7v35c0,6.4,5.2,11.7,11.7,11.7h30.1c6.4,0,11.7,5.2,11.7,11.7v47.9
		C473.6,340.3,468.3,345.5,461.9,345.5z"/>
</g>
</svg>
