<?xml version="1.0" encoding="UTF-8"?><svg id="Layer_3" xmlns="http://www.w3.org/2000/svg" viewBox="0 0 512 512"><defs><style>.cls-1{fill:#241e1e;}.cls-2{fill:#f2ebeb;}</style></defs><circle class="cls-2" cx="256" cy="256" r="256"/><g><path class="cls-1" d="M412.16,160.73v13.17c0,4.14-3.36,7.5-7.5,7.5H125.98c-1.54,0-3.04,.47-4.3,1.36l-69.49,48.74c-6,4.21-3.02,13.63,4.3,13.63h0c4.14,0,7.5,3.36,7.5,7.5v98.64c0,4.14,3.36,7.5,7.5,7.5H452.2c4.14,0,7.5-3.36,7.5-7.5V160.73c0-4.14-3.36-7.5-7.5-7.5h-32.55c-4.14,0-7.5,3.36-7.5,7.5Z"/><rect class="cls-2" x="80.13" y="245.13" width="29.68" height="44.77" rx="7.5" ry="7.5"/><rect class="cls-2" x="125.94" y="266.03" width="27.26" height="23.87" rx="7.5" ry="7.5"/><rect class="cls-2" x="169.33" y="234.04" width="83.11" height="55.86" rx="7.5" ry="7.5"/><rect class="cls-2" x="268.58" y="234.04" width="79.33" height="55.86" rx="7.5" ry="7.5"/><rect class="cls-2" x="364.05" y="234.04" width="33.1" height="55.86" rx="7.5" ry="7.5"/><rect class="cls-2" x="413.28" y="266.03" width="30.28" height="23.87" rx="7.5" ry="7.5"/></g></svg>