<?xml version="1.0" encoding="utf-8"?>
<!-- Generator: Adobe Illustrator 26.5.0, SVG Export Plug-In . SVG Version: 6.00 Build 0)  -->
<svg version="1.1" id="Layer_3" xmlns="http://www.w3.org/2000/svg" xmlns:xlink="http://www.w3.org/1999/xlink" x="0px" y="0px"
	 viewBox="0 0 512 512" style="enable-background:new 0 0 512 512;" xml:space="preserve">
<style type="text/css">
	.st0{fill:#241E1E;}
	.st1{fill:#F2EBEB;}
</style>
<g>
	<path class="st0" d="M441.1,141.9v15.8c0,4.9-4.1,9-9,9H98.5c-1.8,0-3.6,0.6-5.1,1.7l-83.2,58.3c-7.2,5-3.6,16.3,5.1,16.3l0,0
		c4.9,0,9,4.1,9,9v118c0,4.9,4.1,9,9,9H489c4.9,0,9-4.1,9-9V141.9c0-4.9-4.1-9-9-9h-38.9C445.2,132.9,441.1,137,441.1,141.9
		L441.1,141.9z"/>
	<path class="st1" d="M52.6,243h17.6c4.9,0,9,4.1,9,9v35.7c0,4.9-4.1,9-9,9H52.6c-4.9,0-9-4.1-9-9v-35.7C43.7,247,47.6,243,52.6,243
		z"/>
	<path class="st1" d="M107.5,268h14.7c4.9,0,9,4.1,9,9v10.7c0,4.9-4.1,9-9,9h-14.7c-4.9,0-9-4.1-9-9V277
		C98.5,272.1,102.6,268,107.5,268z"/>
	<path class="st1" d="M159.4,229.7H241c4.9,0,9,4.1,9,9v49c0,4.9-4.1,9-9,9h-81.5c-4.9,0-9-4.1-9-9v-49
		C150.4,233.7,154.4,229.7,159.4,229.7z"/>
	<path class="st1" d="M278.2,229.7h77c4.9,0,9,4.1,9,9v49c0,4.9-4.1,9-9,9h-77c-4.9,0-9-4.1-9-9v-49
		C269.2,233.7,273.3,229.7,278.2,229.7z"/>
	<path class="st1" d="M392.5,229.7h21.7c4.9,0,9,4.1,9,9v49c0,4.9-4.1,9-9,9h-21.7c-4.9,0-9-4.1-9-9v-49
		C383.5,233.7,387.6,229.7,392.5,229.7z"/>
	<path class="st1" d="M451.4,268h18.3c4.9,0,9,4.1,9,9v10.7c0,4.9-4.1,9-9,9h-18.3c-4.9,0-9-4.1-9-9V277
		C442.4,272.1,446.5,268,451.4,268z"/>
</g>
</svg>
