<?xml version="1.0" encoding="utf-8"?>
<!-- Generator: Adobe Illustrator 26.5.0, SVG Export Plug-In . SVG Version: 6.00 Build 0)  -->
<svg version="1.1" id="Layer_3" xmlns="http://www.w3.org/2000/svg" xmlns:xlink="http://www.w3.org/1999/xlink" x="0px" y="0px"
	 viewBox="0 0 512 512" style="enable-background:new 0 0 512 512;" xml:space="preserve">
<style type="text/css">
	.st0{fill:#F2EBEB;}
	.st1{fill:#241E1E;}
</style>
<circle class="st0" cx="256" cy="256" r="256"/>
<g>
	<path class="st1" d="M399,160.7v13.2c0,4.1-3.4,7.5-7.5,7.5H112.8c-1.5,0-3,0.5-4.3,1.4L39,231.5c-6,4.2-3,13.6,4.3,13.6l0,0
		c4.1,0,7.5,3.4,7.5,7.5v98.6c0,4.1,3.4,7.5,7.5,7.5h380.7c4.1,0,7.5-3.4,7.5-7.5V160.7c0-4.1-3.4-7.5-7.5-7.5h-32.5
		C402.4,153.2,399,156.6,399,160.7L399,160.7z"/>
	<path class="st0" d="M74.5,245.1h14.7c4.1,0,7.5,3.4,7.5,7.5v29.8c0,4.1-3.4,7.5-7.5,7.5H74.5c-4.1,0-7.5-3.4-7.5-7.5v-29.8
		C67,248.5,70.3,245.1,74.5,245.1z"/>
	<path class="st0" d="M120.3,266h12.3c4.1,0,7.5,3.4,7.5,7.5v8.9c0,4.1-3.4,7.5-7.5,7.5h-12.3c-4.1,0-7.5-3.4-7.5-7.5v-8.9
		C112.8,269.4,116.2,266,120.3,266z"/>
	<path class="st0" d="M163.7,234h68.1c4.1,0,7.5,3.4,7.5,7.5v40.9c0,4.1-3.4,7.5-7.5,7.5h-68.1c-4.1,0-7.5-3.4-7.5-7.5v-40.9
		C156.2,237.4,159.5,234,163.7,234z"/>
	<path class="st0" d="M262.9,234h64.3c4.1,0,7.5,3.4,7.5,7.5v40.9c0,4.1-3.4,7.5-7.5,7.5h-64.3c-4.1,0-7.5-3.4-7.5-7.5v-40.9
		C255.4,237.4,258.8,234,262.9,234z"/>
	<path class="st0" d="M358.4,234h18.1c4.1,0,7.5,3.4,7.5,7.5v40.9c0,4.1-3.4,7.5-7.5,7.5h-18.1c-4.1,0-7.5-3.4-7.5-7.5v-40.9
		C350.9,237.4,354.3,234,358.4,234z"/>
	<path class="st0" d="M407.6,266h15.3c4.1,0,7.5,3.4,7.5,7.5v8.9c0,4.1-3.4,7.5-7.5,7.5h-15.3c-4.1,0-7.5-3.4-7.5-7.5v-8.9
		C400.1,269.4,403.5,266,407.6,266z"/>
</g>
</svg>
